<svg width="141" height="37" viewBox="0 0 141 37" fill="none" xmlns="http://www.w3.org/2000/svg">
<path fill-rule="evenodd" clip-rule="evenodd" d="M1.78671 0C2.04249 0 3.0042 0.0623676 3.93522 0.133645C4.86624 0.204922 6.38042 0.400935 7.31144 0.570219C8.24246 0.730592 9.27579 0.935515 9.61341 1.00679C9.95103 1.08698 10.7081 1.2919 11.3015 1.45228C11.8949 1.62156 12.7032 1.87103 13.0919 2.00467C13.4807 2.12941 14.4322 2.50362 15.1893 2.82436C15.9464 3.15402 16.8058 3.53714 17.082 3.67969C17.3685 3.83116 18.0949 4.241 18.719 4.59739C19.3431 4.95377 20.4173 5.65764 21.1233 6.1744C21.8292 6.68225 22.7295 7.39502 23.1183 7.76032C23.5173 8.12561 24.0289 8.61564 24.7041 9.3106L25.1952 8.82057C25.4612 8.55328 26.1671 7.91178 26.7605 7.39502C27.3539 6.87826 28.3156 6.12985 28.909 5.73782C29.4922 5.33689 30.3925 4.77558 30.8939 4.48156C31.3952 4.18754 32.2341 3.75097 32.7354 3.5015C33.2367 3.25203 33.9529 2.93128 34.3212 2.78872C34.6895 2.63726 35.2625 2.41452 35.6001 2.28978C35.9377 2.16505 36.5107 1.96013 36.879 1.83539C37.2473 1.71066 37.9123 1.50573 38.3625 1.381C38.8126 1.25626 39.4572 1.08698 39.7948 1.0157C40.1324 0.935515 40.5928 0.837508 40.8179 0.79296C41.043 0.739502 41.9433 0.588038 42.8129 0.445483C43.6826 0.302929 45.207 0.142555 46.1892 0.080187C47.8057 -0.0178193 48.0103 -0.00890967 48.3172 0.124735C48.4911 0.204922 48.6958 0.365296 48.7469 0.490032C48.8185 0.632586 48.839 6.52188 48.7981 34.6586L48.2354 35.1486L43.9588 35.1754C41.6159 35.1932 39.4981 35.1843 39.2526 35.1575C38.8945 35.113 38.7819 35.0417 38.3113 34.4358V25.544C38.3113 16.7502 38.3113 16.6611 38.1067 16.572C37.9532 16.5096 37.7486 16.5274 37.3087 16.6611C36.9915 16.768 36.306 17.0264 35.8047 17.2491C35.3034 17.4719 34.6077 17.8015 34.2701 17.9797C33.9427 18.1668 33.2981 18.5143 32.8377 18.7727C32.3876 19.0221 31.876 19.3162 31.7123 19.4231C31.5486 19.5211 31.0575 19.824 30.6381 20.0913C30.2186 20.3586 29.4001 20.8843 28.817 21.2674C28.2338 21.6505 27.4358 22.194 27.0265 22.4791C26.6173 22.7642 26.0853 23.1473 25.8397 23.3255C25.5942 23.5037 25.2975 23.6997 25.1747 23.7621C25.052 23.8244 24.8371 23.869 24.6734 23.8779C24.52 23.8779 24.3051 23.7977 24.1926 23.6997C24.08 23.6017 23.9675 23.5215 23.9368 23.5215C23.9061 23.5215 23.6196 23.3344 23.2922 23.1028C22.9751 22.8622 22.6886 22.6573 22.6579 22.6305C22.6272 22.6038 22.4226 22.4613 22.1975 22.3098C21.9724 22.1583 21.3995 21.7752 20.9186 21.4545C20.4378 21.1426 19.4761 20.519 18.7701 20.0824C18.0642 19.6458 17.0718 19.0489 16.5705 18.7638C16.0589 18.4697 15.5372 18.1668 15.3939 18.0866C15.2507 18.0064 14.6982 17.7302 14.1662 17.4808C13.6342 17.2313 12.8259 16.9016 12.3758 16.7591C11.9256 16.6076 11.5266 16.4829 11.4857 16.4829C11.4448 16.4829 11.3424 16.5452 11.2606 16.6165C11.1174 16.7323 11.0969 17.6768 11.0969 34.5695L10.5035 35.1486H1.19332L0.927311 34.9259C0.743154 34.7655 0.651075 34.5695 0.610151 34.2131C0.569227 33.9458 0.538534 28.6357 0.528303 22.4078C0.518072 16.1889 0.538534 9.15022 0.569227 6.77134C0.610151 4.39246 0.59992 2.69072 0.558996 2.98474C0.507841 3.39458 0.487379 3.26094 0.507841 2.45016C0.528303 1.86212 0.569227 1.22062 0.59992 1.02461C0.640844 0.828599 0.691999 0.579128 0.712461 0.472212C0.743154 0.356387 0.886387 0.204922 1.03985 0.133645C1.20355 0.0623676 1.53094 0.00890966 1.78671 0ZM15.6804 15.4939C15.6906 15.5741 15.8952 15.7523 16.1305 15.9037C16.3761 16.0463 17.1946 16.5631 17.9517 17.0531C18.7088 17.5342 19.8342 18.2826 20.448 18.7014C21.0619 19.1201 21.7371 19.6102 21.9622 19.7795C22.1771 19.9487 22.3817 20.0735 22.4124 20.0467C22.4431 20.02 21.9622 19.5924 21.3586 19.1023C20.7549 18.6034 19.7932 17.8461 19.2305 17.4184C18.6678 16.9907 17.9517 16.474 17.6447 16.269C17.3378 16.0641 16.8672 15.7434 16.5909 15.5652C16.3249 15.387 16.0487 15.2355 15.9771 15.2355C15.8952 15.2355 15.8032 15.2623 15.752 15.2979C15.7008 15.3246 15.6702 15.4137 15.6804 15.4939ZM29.8708 17.6857C29.3694 18.0599 28.6533 18.6212 28.285 18.933C27.9166 19.2449 27.4767 19.6191 27.313 19.7795C27.1493 19.9398 27.6097 19.6547 28.3361 19.1469C29.0625 18.6301 30.1981 17.8728 30.8427 17.454C31.4872 17.0353 32.4183 16.4472 32.9094 16.1443C33.5334 15.7612 33.7994 15.5474 33.779 15.4315C33.7688 15.3513 33.6562 15.2712 33.5437 15.2533C33.4004 15.2355 32.9196 15.5117 32.0602 16.1087C31.3645 16.5987 30.3721 17.3026 29.8708 17.6857ZM12.785 15.8681C12.8464 15.9661 13.2556 16.2156 13.7058 16.4294C14.156 16.6433 14.9438 17.0264 15.4451 17.2758C15.9464 17.5342 17.0309 18.1312 17.8494 18.6034C18.6678 19.0667 19.65 19.6547 20.0286 19.9042C20.4173 20.1537 21.1744 20.6704 21.7167 21.0624C22.2691 21.4456 23.0467 22.0603 23.4457 22.4167C23.8549 22.782 24.213 23.076 24.2437 23.076C24.2744 23.076 24.2949 23.0404 24.2949 22.9869C24.2949 22.9335 23.681 22.3633 22.9341 21.7128C22.1975 21.0535 21.0312 20.1269 20.3559 19.6369C19.6807 19.1469 18.4837 18.345 17.6959 17.855C16.9081 17.3649 15.8952 16.768 15.4451 16.5096C14.9949 16.2601 14.3401 15.9127 13.982 15.7345C13.6342 15.5563 13.2659 15.4137 13.1533 15.4137C13.051 15.4137 12.8976 15.4761 12.8259 15.5474C12.7236 15.6543 12.7134 15.7345 12.785 15.8681ZM32.009 17.6857C31.5282 17.9797 30.5665 18.6034 29.881 19.0756C29.2057 19.5478 28.2952 20.2071 27.8757 20.5368C27.4562 20.8664 26.7196 21.4812 26.249 21.9089C25.7784 22.3276 25.318 22.7642 25.2259 22.88C25.1338 22.9869 25.0827 23.1028 25.1133 23.1206C25.144 23.1473 25.4612 22.8978 25.8295 22.5682C26.1978 22.2385 26.8628 21.6861 27.313 21.3476C27.7632 21.009 28.551 20.4655 29.0523 20.1358C29.5536 19.8062 30.4744 19.2449 31.0985 18.8796C31.7123 18.5143 32.6024 18.0153 33.0935 17.757C33.5744 17.5075 34.4645 17.0442 35.0886 16.7413C35.7126 16.4383 36.3163 16.1354 36.439 16.073C36.6027 15.9839 36.6641 15.877 36.6437 15.6988C36.6232 15.5028 36.572 15.4583 36.3163 15.4315C36.081 15.4137 35.6615 15.6008 34.4542 16.278C33.5948 16.7591 32.5001 17.3917 32.009 17.6857ZM74.1709 23.4413C74.396 23.4413 74.8973 23.4948 75.2963 23.5661C75.726 23.6462 76.2785 23.8423 76.6775 24.0472C77.0458 24.2343 77.588 24.6263 77.895 24.9114C78.1917 25.2054 78.5702 25.6598 78.7237 25.9271C78.8772 26.1944 79.0818 26.729 79.1738 27.1121C79.2659 27.4863 79.3375 28.0744 79.3375 28.4218C79.3375 28.7693 79.2659 29.3573 79.1841 29.7405C79.0818 30.177 78.8669 30.6849 78.5907 31.1304C78.3042 31.5937 77.9666 31.9946 77.5983 32.2886C77.2811 32.5381 76.7491 32.8677 76.4217 33.0103C75.8385 33.2687 75.7465 33.2776 74.529 33.2776C73.2603 33.2776 73.2399 33.2687 72.5442 32.9658C72.1656 32.7965 71.6643 32.4846 71.4495 32.2708C71.2346 32.0659 71.03 31.8966 70.9993 31.8966C70.9686 31.8966 70.9481 33.0281 70.9481 36.9306L70.1604 36.984C69.7204 37.0107 69.0656 37.0107 68.0323 36.9306V23.6552L70.5389 23.6106V24.2788C70.5389 24.6441 70.5594 24.9471 70.5901 24.9471C70.6105 24.9471 70.7844 24.8134 70.9686 24.653C71.1528 24.4927 71.5108 24.2343 71.7666 24.0739C72.0531 23.8868 72.5135 23.7175 72.9943 23.6106C73.4138 23.5215 73.9458 23.4413 74.1709 23.4413ZM71.961 26.1053C71.7564 26.23 71.4597 26.4617 71.296 26.631C71.0095 26.9339 70.9993 26.9696 70.9584 28.1456C70.9379 29.1257 70.9584 29.4108 71.0914 29.6514C71.1834 29.8028 71.429 30.0968 71.6336 30.3018C71.8485 30.4978 72.227 30.774 72.4828 30.8987C72.8613 31.0947 73.066 31.1393 73.6593 31.1393C74.2834 31.1304 74.4369 31.0947 74.8871 30.8542C75.1633 30.7027 75.5418 30.3998 75.726 30.1859C75.8999 29.9721 76.125 29.5623 76.2069 29.2682C76.2989 28.9742 76.3706 28.5733 76.3706 28.3773C76.3706 28.1813 76.3092 27.8249 76.2375 27.5754C76.1659 27.3348 75.9511 26.9517 75.7669 26.729C75.5828 26.5062 75.2656 26.2211 75.061 26.0875C74.8564 25.9628 74.4778 25.8113 74.2221 25.7578C73.9663 25.7044 73.598 25.6687 73.4036 25.6687C73.2092 25.6687 72.8818 25.7222 72.6874 25.7757C72.493 25.838 72.1656 25.9895 71.961 26.1053ZM135.045 23.477C135.495 23.5037 136.089 23.575 136.375 23.6462C136.651 23.7086 137.173 23.8868 137.521 24.0472C137.889 24.1986 138.452 24.5639 138.81 24.8847C139.291 25.2856 139.567 25.6242 139.854 26.1499C140.079 26.5775 140.304 27.1656 140.396 27.62C140.529 28.2525 140.529 28.4931 140.427 29.0455C140.365 29.4108 140.191 29.9721 140.048 30.2929C139.905 30.6136 139.618 31.0947 139.404 31.362C139.189 31.6293 138.749 32.0391 138.411 32.2797C138.084 32.5114 137.46 32.8321 137.04 32.9925C136.283 33.2687 136.242 33.2776 133.101 33.2776L132.201 32.9034C131.659 32.6628 131.096 32.3421 130.738 32.057C130.421 31.7986 130.012 31.362 129.827 31.0947C129.633 30.8274 129.387 30.3641 129.265 30.0701C129.152 29.7761 129.029 29.1791 128.988 28.7337C128.937 28.0744 128.968 27.7982 129.152 27.1745C129.285 26.7557 129.541 26.1766 129.725 25.8826C129.92 25.5886 130.339 25.1163 130.666 24.8312C131.035 24.5105 131.536 24.1897 131.976 24.0026C132.365 23.8333 133.04 23.6373 133.459 23.5661C133.93 23.4859 134.544 23.4502 135.045 23.477ZM133.306 26.0519C133.132 26.141 132.876 26.3459 132.723 26.4973C132.569 26.6488 132.354 27.0052 132.242 27.2903C132.099 27.62 132.027 28.0209 132.027 28.4218C132.027 28.8228 132.099 29.2237 132.242 29.5623C132.354 29.8385 132.569 30.1948 132.723 30.3552C132.876 30.5067 133.275 30.7562 133.613 30.9165C134.176 31.1749 134.278 31.2016 134.892 31.1482C135.335 31.1125 135.693 31.0234 135.966 30.8809C136.191 30.7651 136.498 30.5512 136.651 30.4087C136.805 30.275 137.051 29.9008 137.204 29.5801C137.439 29.0722 137.47 28.9119 137.429 28.2436C137.398 27.6556 137.327 27.3883 137.122 27.0408C136.979 26.8003 136.672 26.4439 136.437 26.2657C136.212 26.0786 135.925 25.8915 135.813 25.838C135.7 25.7846 135.321 25.7311 134.963 25.7044C134.595 25.6776 134.186 25.7044 133.971 25.7757C133.766 25.8291 133.47 25.9538 133.306 26.0519ZM78.3656 2.22742C79.0715 2.22742 79.6649 2.25414 79.6956 2.28978C79.7161 2.33433 79.6138 2.53925 79.4501 2.762C79.2864 2.98474 78.8567 3.57278 78.4781 4.07172C78.1098 4.57957 77.7517 4.98941 77.7006 4.98941C77.6392 4.98941 77.3527 4.90922 77.056 4.82013C76.7696 4.73103 76.4012 4.62412 76.2375 4.59739C76.0841 4.57066 75.9613 4.48156 75.9613 4.41028C75.9613 4.33901 76.1455 3.93807 76.3706 3.51932C76.5956 3.10056 76.7798 2.73527 76.7696 2.69072C76.7593 2.65508 76.831 2.53034 76.9333 2.42343C77.0867 2.23633 77.1686 2.22742 78.3656 2.22742ZM112.598 2.21851L115.504 2.27196L115.463 4.90031C115.443 6.34368 115.453 8.80275 115.555 13.1863L115.811 13.2309C115.964 13.2576 116.087 13.3556 116.118 13.4714C116.149 13.5872 116.169 14.0773 116.118 15.4583L115.453 15.5741C114.9 15.6632 114.706 15.6632 114.276 15.5563C113.949 15.4761 113.652 15.3246 113.448 15.1286C113.253 14.9415 113.11 14.7009 112.997 14.0773L112.609 14.4515C112.394 14.6653 111.985 14.9504 111.708 15.093C111.432 15.2355 110.931 15.4315 110.593 15.5206C110.245 15.6097 109.662 15.681 109.263 15.681C108.854 15.681 108.261 15.6008 107.882 15.5028C107.514 15.4137 106.941 15.1821 106.603 14.9861C106.265 14.799 105.785 14.4426 105.539 14.202C105.294 13.9614 104.946 13.5071 104.762 13.1863C104.577 12.8656 104.352 12.3042 104.26 11.9389C104.168 11.5737 104.097 11.0213 104.097 10.7094C104.097 10.4065 104.168 9.84518 104.26 9.46206C104.352 9.08786 104.588 8.49091 104.782 8.15234C105.007 7.77814 105.396 7.31483 105.774 6.97627C106.194 6.61097 106.634 6.33477 107.115 6.13876C107.8 5.85365 107.892 5.83583 109.007 5.83583C110.133 5.83583 110.215 5.84474 110.849 6.12985C111.217 6.29022 111.719 6.60206 111.974 6.81589C112.23 7.03863 112.465 7.21683 112.506 7.21683C112.558 7.21683 112.588 6.09421 112.588 4.72212L112.598 2.21851ZM107.831 8.88293C107.647 9.11459 107.432 9.52443 107.34 9.79172C107.248 10.0679 107.176 10.5045 107.166 10.7718C107.166 11.048 107.227 11.4489 107.309 11.6627C107.381 11.8855 107.575 12.2241 107.739 12.4201C107.902 12.6161 108.158 12.8566 108.291 12.9547C108.424 13.0527 108.752 13.2041 109.007 13.2843C109.263 13.3734 109.683 13.4447 109.938 13.4447C110.184 13.4447 110.634 13.3912 110.931 13.311C111.33 13.213 111.596 13.0705 111.944 12.7586C112.21 12.527 112.455 12.2419 112.506 12.135C112.558 12.0191 112.598 11.4489 112.598 10.8609C112.598 10.1125 112.547 9.70262 112.445 9.47988C112.353 9.3106 112.107 9.00767 111.882 8.81166C111.657 8.61564 111.187 8.33945 110.828 8.18798C110.481 8.04543 110.03 7.92069 109.826 7.92069C109.631 7.92069 109.171 8.04543 108.813 8.19689C108.312 8.40181 108.076 8.5711 107.831 8.88293ZM56.0007 2.57489C57.1056 2.57489 57.5353 2.60162 57.6274 2.68181C57.6888 2.74418 57.9753 3.18075 58.2515 3.64405C58.5277 4.11626 59.1314 5.13197 59.5918 5.91602C60.0624 6.70007 60.7376 7.84941 61.1059 8.45527C61.4743 9.07004 61.8119 9.61353 61.8528 9.65808C61.9039 9.71153 62.037 9.56007 62.1802 9.30169C62.3132 9.06113 62.7634 8.2949 63.1726 7.60885C63.5818 6.92281 64.1445 6.00511 64.4105 5.55963C64.6765 5.12306 65.1574 4.32119 65.4746 3.7777C65.802 3.24312 66.1191 2.74418 66.1805 2.68181C66.2726 2.59271 66.6614 2.57489 69.3726 2.61944L69.393 8.8562C69.4135 12.2864 69.4033 15.1821 69.3726 15.2979C69.3214 15.4939 69.3009 15.4939 66.4056 15.4494L66.3033 7.35047L65.5666 8.59783C65.1574 9.28387 64.5538 10.2996 64.2162 10.8609C63.8683 11.4311 63.3977 12.2151 62.7224 13.3645L61.0855 13.3556L60.4307 12.2686C60.0726 11.6627 59.4997 10.7183 59.162 10.1481C58.8142 9.5868 58.3026 8.73147 57.5046 7.35938L57.4023 15.4494L55.97 15.4672C54.9571 15.4761 54.5172 15.4583 54.4558 15.3781C54.4149 15.3246 54.3842 12.4646 54.3944 9.0344C54.3944 5.60418 54.4251 2.75309 54.4456 2.69072C54.4865 2.61053 54.8957 2.57489 56.0007 2.57489ZM87.8395 2.84218L87.8804 3.09165C87.9009 3.2253 87.9213 3.84006 87.9213 4.44592C87.9316 5.06069 87.9316 5.63091 87.9316 5.72C87.9418 5.85365 88.0646 5.87147 89.0161 5.87147C90.0392 5.87147 90.0903 5.88038 90.1415 6.07639C90.1721 6.18331 90.1824 6.6377 90.1415 7.87614L87.9418 7.92069V10.3976C87.9418 12.8299 87.9418 12.8745 88.1669 13.0705C88.351 13.2309 88.5147 13.2754 88.9342 13.2754C89.2309 13.2665 89.6504 13.2041 89.855 13.1328C90.0698 13.0616 90.2949 13.017 90.3665 13.0437C90.4382 13.0705 90.5507 13.3199 90.6121 13.6051C90.6735 13.8813 90.7553 14.1753 90.7962 14.2466C90.8474 14.3267 90.9088 14.5138 90.9395 14.6742C91.0009 14.9415 90.9804 14.9682 90.5712 15.1286C90.3358 15.2266 89.7629 15.387 89.2923 15.485C88.8319 15.5919 88.2078 15.6721 87.9111 15.6721C87.6144 15.6721 87.1642 15.6186 86.9187 15.5563C86.6629 15.485 86.3151 15.3692 86.1514 15.2979C85.9774 15.2177 85.7421 15.0662 85.6194 14.9504C85.4966 14.8346 85.3022 14.5584 85.1897 14.3356C84.985 13.9614 84.9748 13.7654 84.9748 7.92069L83.5936 7.87614L83.5629 7.07427C83.5425 6.6377 83.5527 6.18331 83.5834 6.07639C83.6346 5.88929 83.7062 5.87147 84.9748 5.87147L84.9544 4.41919C84.9441 3.61732 84.9748 2.94019 85.026 2.90455C85.0669 2.86891 85.7217 2.84218 87.8395 2.84218ZM77.097 5.80019C77.629 5.79128 78.2735 5.82692 78.5293 5.88038C78.7748 5.93384 79.3273 6.12094 79.757 6.29022C80.2276 6.49514 80.7597 6.80698 81.1382 7.12773C81.5474 7.4663 81.8782 7.85535 82.1306 8.2949C82.3455 8.65128 82.591 9.18586 82.6728 9.47988C82.7649 9.80954 82.8161 10.3085 82.7752 11.5291L74.4369 11.5737L74.4983 11.8677C74.529 12.028 74.6415 12.2953 74.7438 12.4646C74.8461 12.6428 75.0815 12.9101 75.2656 13.0705C75.46 13.2398 75.7976 13.4447 76.0227 13.5427C76.2887 13.6585 76.6673 13.7209 77.1481 13.7298C77.7006 13.7387 77.9871 13.6942 78.4168 13.5249C78.7646 13.3912 79.1227 13.1596 79.8082 12.4735L80.6266 12.6874C81.0768 12.8032 81.5577 12.919 81.7009 12.9457C81.8339 12.9725 82.0181 13.0348 82.1101 13.0794C82.2329 13.1507 82.2124 13.2219 81.9669 13.5516C81.8032 13.7654 81.4349 14.1307 81.1484 14.3624C80.862 14.6029 80.3811 14.9148 80.0844 15.0573C79.7877 15.1999 79.1841 15.3959 78.7339 15.4939C78.2531 15.6008 77.5676 15.6721 77.097 15.6721C76.5956 15.6721 75.9715 15.6008 75.4805 15.4939C75.0508 15.387 74.4164 15.1732 74.0788 15.0128C73.7412 14.8435 73.2603 14.5406 73.0148 14.3267C72.7692 14.1129 72.4112 13.7387 72.227 13.4892C72.0326 13.2487 71.7666 12.7586 71.6234 12.4023C71.4085 11.8588 71.3676 11.5915 71.3676 10.754C71.3676 9.90754 71.4085 9.64026 71.6234 9.07895C71.7666 8.71365 72.0429 8.21471 72.227 7.96524C72.4112 7.72468 72.7692 7.35047 73.0148 7.14555C73.2603 6.94063 73.6184 6.68225 73.823 6.56642C74.0174 6.4506 74.4574 6.26349 74.795 6.13876C75.1326 6.02293 75.5623 5.8982 75.7669 5.86256C75.9613 5.83583 76.5547 5.80019 77.097 5.80019ZM76.0227 7.85832C75.8488 7.91178 75.5623 8.06325 75.3782 8.18798C75.194 8.31272 74.9484 8.53546 74.8461 8.67801C74.7336 8.82948 74.5801 9.13241 74.4983 9.34624C74.4164 9.56898 74.3755 9.78281 74.4164 9.81845C74.4574 9.85409 75.6749 9.88973 77.1174 9.88973L79.757 9.88082C79.7468 9.56898 79.6547 9.30169 79.5422 9.07895C79.4296 8.86512 79.1841 8.54437 79.0102 8.38399C78.826 8.22362 78.5088 8.00979 78.294 7.91178C78.0894 7.82268 77.6494 7.72468 77.322 7.70686C77.0049 7.68013 76.6468 7.68904 76.5342 7.70686C76.4217 7.73359 76.1864 7.80486 76.0227 7.85832ZM97.5589 5.81801C98.7253 5.84474 98.8992 5.87147 99.6051 6.12985C100.025 6.28131 100.638 6.58424 100.956 6.80698C101.283 7.02972 101.723 7.42175 101.948 7.68013C102.163 7.93851 102.47 8.41072 102.623 8.72256C102.777 9.04331 102.951 9.64917 103.012 10.059C103.094 10.6114 103.094 11.0034 103.012 11.4846C102.951 11.8588 102.797 12.3488 102.685 12.5804C102.562 12.8121 102.47 13.0259 102.47 13.0437C102.47 13.0705 102.286 13.3199 102.071 13.6051C101.856 13.8813 101.457 14.2822 101.181 14.4782C100.904 14.6742 100.465 14.9415 100.219 15.0752C99.9632 15.1999 99.3903 15.387 98.9401 15.4939C98.2853 15.6454 97.917 15.681 97.1497 15.6543C96.6074 15.6275 95.922 15.5563 95.615 15.4761C95.2979 15.4048 94.7966 15.2266 94.4896 15.0841C94.1725 14.9504 93.62 14.5673 93.2517 14.2555C92.8527 13.908 92.4434 13.4536 92.2593 13.1328C92.0956 12.8388 91.8705 12.3221 91.7682 11.9746C91.6556 11.6271 91.5738 11.0658 91.584 10.6827C91.584 10.2728 91.6761 9.73826 91.8193 9.30169C91.9421 8.90966 92.1877 8.3929 92.3616 8.14343C92.5355 7.90287 92.7913 7.58212 92.9243 7.43066C93.0675 7.2881 93.4154 7.01191 93.7121 6.81589C93.9985 6.62879 94.5203 6.35259 94.8682 6.21895C95.2262 6.07639 95.6866 5.92493 95.8913 5.88038C96.1061 5.82692 96.853 5.80019 97.5589 5.81801ZM95.6253 8.5711C95.4411 8.73147 95.1751 9.01658 95.0523 9.21259C94.9193 9.4086 94.7556 9.83627 94.6942 10.1481C94.6124 10.5669 94.6022 10.8876 94.684 11.3064C94.7556 11.6806 94.9193 12.0548 95.1239 12.3577C95.3081 12.6161 95.615 12.9279 95.8196 13.0527C96.014 13.1685 96.3312 13.311 96.5358 13.3556C96.7302 13.409 97.0985 13.4447 97.3543 13.4447C97.5998 13.4447 97.9886 13.409 98.1932 13.3556C98.4081 13.311 98.7662 13.115 99.0015 12.9368C99.2266 12.7497 99.5233 12.4379 99.646 12.2419C99.7688 12.0459 99.9325 11.6449 100.004 11.3509C100.086 11.0302 100.106 10.6203 100.066 10.3263C100.025 10.059 99.8813 9.64026 99.7381 9.39079C99.5949 9.15022 99.3084 8.79384 99.1038 8.60674C98.8992 8.41963 98.5002 8.19689 98.1932 8.09888C97.8965 8.00088 97.5078 7.92069 97.3236 7.9296C97.1395 7.9296 96.7609 8.00979 96.4847 8.10779C96.1982 8.2058 95.8196 8.41072 95.6253 8.5711ZM123.034 5.79128C123.505 5.79128 124.149 5.82692 124.466 5.88038C124.773 5.92493 125.367 6.11203 125.796 6.29022C126.318 6.51296 126.758 6.78916 127.178 7.15446C127.525 7.45739 127.945 7.92069 128.119 8.18798C128.303 8.46418 128.538 8.99876 128.651 9.39079C128.774 9.80954 128.866 10.3887 128.866 10.7718C128.866 11.1727 128.774 11.7073 128.651 12.1082C128.528 12.4824 128.303 12.9814 128.15 13.2219C127.986 13.4714 127.638 13.8813 127.362 14.1485C127.096 14.4158 126.564 14.7811 126.206 14.9682C125.837 15.1553 125.193 15.387 124.773 15.4939C124.292 15.6097 123.699 15.6721 123.188 15.6721C122.707 15.6721 122.021 15.6008 121.551 15.4939C121.1 15.3959 120.517 15.2088 120.272 15.0752C120.016 14.9504 119.556 14.6653 119.259 14.4337C118.952 14.2109 118.553 13.8278 118.369 13.5783C118.185 13.3378 117.908 12.8745 117.755 12.5537C117.54 12.0993 117.468 11.7875 117.427 11.0836C117.407 10.5847 117.427 9.961 117.499 9.65808C117.56 9.36406 117.786 8.82948 117.99 8.45527C118.246 7.99197 118.563 7.60885 119.034 7.19901C119.504 6.78916 119.934 6.51296 120.476 6.29022C120.896 6.11203 121.448 5.93384 121.704 5.88929C121.95 5.84474 122.553 5.80019 123.034 5.79128ZM121.99 8.23253C121.806 8.32163 121.499 8.51764 121.315 8.6691C121.131 8.82057 120.855 9.16804 120.712 9.43533C120.487 9.84518 120.446 10.059 120.435 10.7272C120.435 11.4489 120.466 11.5915 120.732 12.0548C120.896 12.3488 121.233 12.7408 121.469 12.9279C121.714 13.115 122.083 13.311 122.287 13.3556C122.502 13.409 122.881 13.4447 123.136 13.4447C123.382 13.4447 123.781 13.4001 124.006 13.3467C124.241 13.2843 124.62 13.0705 124.906 12.8299C125.223 12.5626 125.469 12.2597 125.612 11.93C125.766 11.5826 125.827 11.2351 125.827 10.7272C125.827 10.2105 125.766 9.88082 125.602 9.52443C125.479 9.25714 125.223 8.88293 125.029 8.70474C124.824 8.51764 124.477 8.28599 124.231 8.17907C123.996 8.08107 123.587 7.97415 123.341 7.95633C123.085 7.94742 122.758 7.96524 122.604 8.00088C122.451 8.04543 122.175 8.14343 121.99 8.23253ZM81.0768 19.9487H82.5091C83.6959 19.9487 83.9619 19.9755 84.0029 20.0824C84.0233 20.1626 84.054 22.5682 84.054 30.6403L84.3303 30.8631C84.5349 31.0234 84.7293 31.0858 85.026 31.0858C85.251 31.0858 85.5784 31.0324 85.7626 30.9789C85.9365 30.9165 86.1105 30.8898 86.1412 30.9076C86.1821 30.9344 86.2946 31.3531 86.4072 31.8431C86.6015 32.6985 86.6118 32.743 86.4378 32.8499C86.3355 32.9123 86.0184 33.0281 85.7421 33.0994C85.4557 33.1796 84.7906 33.2598 84.2586 33.2776C83.7164 33.2954 83.1025 33.2687 82.8775 33.2152C82.6524 33.1618 82.3045 33.0192 82.1101 32.9034C81.9055 32.7876 81.6088 32.5025 81.1382 31.8431L81.0768 19.9487ZM87.6246 19.9487L90.5405 19.9933V22.3989L87.6246 22.4434V19.9487ZM125.653 19.9576C126.891 19.9576 127.014 19.9755 127.014 20.1091C127.014 20.1982 127.024 22.6038 127.065 30.6582L127.74 31.1393V32.1372C127.73 33.0103 127.71 33.1529 127.556 33.2063C127.454 33.242 127.004 33.2687 126.554 33.2776C125.837 33.2776 125.674 33.2509 125.356 33.0549C125.142 32.9301 124.906 32.7074 124.824 32.5648C124.743 32.4134 124.651 32.1817 124.558 31.8075L124.078 32.2441C123.781 32.5114 123.31 32.7965 122.87 32.9747C122.185 33.2687 122.123 33.2776 120.875 33.2776C119.689 33.2776 119.556 33.2598 118.983 33.0281C118.645 32.8856 118.164 32.6539 117.908 32.5024C117.663 32.351 117.264 32.0213 117.028 31.7719C116.793 31.5224 116.466 31.0769 116.302 30.7829C116.138 30.4889 115.944 30.0434 115.872 29.8028C115.801 29.5534 115.75 28.9029 115.76 28.3505C115.76 27.7982 115.821 27.1567 115.883 26.925C115.944 26.6934 116.169 26.2033 116.394 25.838C116.609 25.4549 117.018 24.9649 117.325 24.6887C117.622 24.4303 118.092 24.1006 118.369 23.9581C118.655 23.8155 119.249 23.6373 119.699 23.5482C120.405 23.4146 120.62 23.4146 121.233 23.5037C121.632 23.5661 122.185 23.7086 122.461 23.8244C122.748 23.9403 123.239 24.2432 124.149 24.9471L124.139 22.5147C124.129 21.1694 124.159 20.0467 124.2 20.02C124.252 19.9844 124.906 19.9576 125.653 19.9576ZM119.852 26.1855C119.658 26.3191 119.341 26.6934 119.136 27.0052C118.798 27.5398 118.778 27.62 118.778 28.4218C118.778 29.1702 118.819 29.3217 119.054 29.7137C119.208 29.9543 119.474 30.2839 119.648 30.4443C119.822 30.6047 120.159 30.8185 120.394 30.9254C120.63 31.0324 121.08 31.1393 121.387 31.166C121.857 31.2016 122.062 31.166 122.604 30.9522C123.003 30.7918 123.413 30.5423 123.658 30.3107C123.873 30.1058 124.078 29.8028 124.108 29.6425C124.139 29.4821 124.159 28.8762 124.139 28.2793L124.098 27.2101C123.505 26.5241 123.095 26.1944 122.799 26.034C122.4 25.8202 122.103 25.7311 121.643 25.6955C121.233 25.6717 120.892 25.7044 120.62 25.7935C120.394 25.8648 120.057 26.0429 119.852 26.1855ZM58.5891 20.314H61.2287L61.3924 20.6437C61.4845 20.8308 61.6482 21.1783 61.7505 21.4277C61.8528 21.6683 62.0779 22.194 62.2518 22.586C62.436 22.978 62.6713 23.5215 62.7736 23.7888C62.8861 24.0561 63.0191 24.359 63.0703 24.457C63.1317 24.555 63.2851 24.8936 63.4181 25.2143C63.5511 25.5351 63.8888 26.337 64.1855 26.9963C64.4719 27.6556 64.8505 28.5198 65.0244 28.9119C65.1983 29.3039 65.4336 29.8474 65.5359 30.1147C65.6485 30.382 65.8122 30.7294 65.894 30.8898C65.9759 31.0502 66.0373 31.2016 66.0373 31.2284C66.0373 31.2551 66.201 31.6293 66.3954 32.0748C66.6 32.5114 66.7534 32.9568 66.7534 33.0549C66.7534 33.2241 66.7023 33.233 63.7762 33.1885L63.633 32.8767C63.5614 32.7074 63.3056 32.1193 63.0805 31.5848C62.8452 31.0413 62.6099 30.471 62.4564 30.0256H57.3921L56.0621 33.1885H53.0951L53.1155 32.9658C53.1258 32.841 53.269 32.4223 53.4532 32.0302C53.6271 31.6382 53.8624 31.1125 53.9749 30.872C54.0773 30.6225 54.2819 30.1414 54.4251 29.8028C54.5683 29.4553 54.732 29.099 54.7934 29.001C54.8446 28.9029 54.9776 28.6 55.0901 28.3327C55.2027 28.0654 55.4073 27.5843 55.5403 27.2636C55.6835 26.9428 55.9393 26.3637 56.1234 25.9717C56.2974 25.5796 56.5327 25.0362 56.635 24.7689C56.7475 24.5016 56.9112 24.1452 56.9931 23.9848C57.0749 23.8244 57.1363 23.6819 57.1363 23.6552C57.1363 23.6284 57.3102 23.2364 57.5046 22.782C57.7092 22.3276 57.9855 21.7039 58.1287 21.3832C58.2617 21.0624 58.4254 20.6882 58.4868 20.5546L58.5891 20.314ZM59.5918 24.1897C59.5201 24.3857 59.4076 24.6709 59.3257 24.8134C59.2541 24.9649 58.9574 25.642 58.671 26.3281C58.3845 27.0141 58.1083 27.6912 58.0571 27.8249L57.9548 28.0654C61.0446 28.0654 61.7403 28.0387 61.7403 27.9763C61.7403 27.9318 61.4129 27.0765 61.0139 26.0875C60.6148 25.0896 60.2158 24.1095 60.1238 23.8868C59.9703 23.5393 59.9396 23.5126 59.8373 23.6641C59.7759 23.7621 59.6634 23.9937 59.5918 24.1897ZM97.9068 23.4502C98.1932 23.4413 98.7866 23.4948 99.2368 23.5661C99.687 23.6373 100.332 23.8155 100.669 23.967C101.007 24.1185 101.508 24.4125 101.784 24.6174C102.061 24.8223 102.439 25.1965 102.623 25.4371C102.889 25.7935 102.93 25.9093 102.838 25.9984C102.766 26.0608 102.654 26.1142 102.593 26.1142C102.521 26.1142 101.958 26.2479 100.209 26.729L99.7995 26.3726C99.5744 26.1766 99.2368 25.9538 99.0629 25.8648C98.8276 25.7578 98.4899 25.7133 97.9477 25.7133C97.2622 25.7044 97.119 25.74 96.6791 25.9717C96.4028 26.1231 96.0243 26.4082 95.8401 26.6221C95.656 26.827 95.4513 27.1656 95.3797 27.3794C95.3081 27.5843 95.2569 28.0743 95.2569 28.4664C95.2672 28.9297 95.3286 29.3128 95.4411 29.5355C95.5332 29.7315 95.7378 30.0523 95.8913 30.2394C96.0447 30.4265 96.4028 30.7027 96.6791 30.8631C97.1395 31.1125 97.2724 31.1393 97.9579 31.1393C98.6332 31.1304 98.7866 31.0947 99.2368 30.8542C99.5233 30.7027 99.8302 30.48 99.9325 30.3463C100.076 30.1592 100.168 30.1236 100.444 30.1592C100.618 30.177 101.252 30.3285 101.846 30.4889C102.439 30.6492 102.94 30.7829 102.971 30.8007C103.002 30.8185 102.951 30.9611 102.869 31.1215C102.787 31.2818 102.419 31.6739 102.05 31.9946C101.59 32.3955 101.17 32.6628 100.669 32.8677C100.28 33.0281 99.6972 33.2063 99.3903 33.2509C99.0833 33.3043 98.2751 33.3221 97.5998 33.2954C96.5972 33.2598 96.2596 33.2063 95.7583 33.0192C95.4206 32.8945 94.9398 32.6806 94.684 32.5381C94.4282 32.3955 93.9781 32.0392 93.6711 31.754C93.3744 31.4689 92.9857 30.9878 92.822 30.6938C92.648 30.3998 92.4537 29.9008 92.3718 29.5801C92.3002 29.2682 92.2286 28.7248 92.2286 28.3773C92.2286 28.0387 92.3002 27.4952 92.3718 27.1745C92.4537 26.8626 92.6583 26.3459 92.8322 26.0429C93.0266 25.7044 93.4154 25.25 93.8144 24.9025C94.2441 24.5283 94.7352 24.2165 95.1956 24.0115C95.5946 23.8423 96.2493 23.6462 96.6586 23.575C97.0576 23.5126 97.6305 23.4502 97.9068 23.4502ZM108.905 23.4502C109.212 23.4413 109.836 23.5037 110.286 23.575C110.736 23.6373 111.381 23.8155 111.719 23.967C112.056 24.1095 112.527 24.4036 112.762 24.6174C112.987 24.8223 113.304 25.1965 113.448 25.4371C113.591 25.6866 113.755 26.1053 113.816 26.3726C113.877 26.6488 113.918 27.7001 113.918 28.7158C113.918 29.7315 113.949 30.6314 114 30.7116C114.041 30.7918 114.174 30.8898 114.307 30.9344C114.522 31.0056 114.532 31.0502 114.532 33.233L113.795 33.2865C113.376 33.3221 112.864 33.3043 112.639 33.2509C112.414 33.1974 112.107 33.0459 111.964 32.9034C111.811 32.7697 111.637 32.5648 111.575 32.4579C111.514 32.3421 111.463 32.1728 111.463 32.0748C111.463 31.9768 111.422 31.8966 111.361 31.8966C111.309 31.8966 111.228 31.9679 111.187 32.0481C111.135 32.1283 110.89 32.3243 110.624 32.4935C110.348 32.6539 109.846 32.9034 109.498 33.037C108.905 33.2598 108.752 33.2776 107.575 33.2776C106.378 33.2776 106.265 33.2687 105.764 33.037C105.467 32.9034 105.048 32.6539 104.843 32.4935C104.629 32.3243 104.322 31.9501 104.148 31.6649C103.871 31.1927 103.841 31.0591 103.841 30.2929C103.841 29.4821 103.861 29.4197 104.199 28.9297C104.393 28.6535 104.762 28.2882 105.017 28.1189C105.273 27.9585 105.631 27.7625 105.815 27.6823C105.989 27.6021 106.521 27.4507 106.992 27.3527C107.452 27.2547 108.097 27.1745 108.424 27.1745C108.741 27.1745 109.365 27.2368 109.805 27.3081C110.235 27.3883 110.675 27.4685 110.777 27.4863C110.931 27.5309 110.951 27.4685 110.951 27.0408C110.951 26.7735 110.89 26.4261 110.818 26.2657C110.736 26.1053 110.542 25.8737 110.378 25.7489C110.215 25.6242 109.897 25.4638 109.672 25.4015C109.396 25.3213 108.977 25.2945 108.342 25.3302C107.596 25.3658 107.289 25.4282 106.705 25.6598C106.317 25.8202 105.866 26.0251 105.713 26.1231C105.549 26.2122 105.386 26.2835 105.324 26.2835C105.273 26.2835 105.038 25.9628 104.813 25.5707C104.588 25.1787 104.403 24.8045 104.403 24.7243C104.403 24.6441 104.782 24.4392 105.355 24.1986C105.866 23.9848 106.644 23.7443 107.064 23.673C107.483 23.5928 107.943 23.5126 108.087 23.4948C108.23 23.477 108.598 23.4591 108.905 23.4502ZM107.094 29.1881C106.89 29.3128 106.716 29.5444 106.644 29.7405C106.583 29.9186 106.562 30.2038 106.593 30.3641C106.624 30.5245 106.777 30.774 106.941 30.9254C107.094 31.0769 107.422 31.264 107.677 31.3442C107.974 31.4333 108.301 31.4689 108.598 31.4333C108.854 31.4066 109.263 31.3264 109.509 31.264C109.775 31.1927 110.174 30.97 110.47 30.7383L110.972 30.3374L110.9 29.0099C109.928 28.7604 109.376 28.698 108.956 28.7069C108.567 28.7069 108.056 28.7693 107.831 28.8406C107.606 28.9119 107.268 29.0722 107.094 29.1881ZM89.1286 23.6106C90.2438 23.6106 90.4995 23.6373 90.5405 23.7443C90.5712 23.8244 90.5916 25.9449 90.5916 28.4664C90.5916 32.7519 90.5814 33.0638 90.4177 33.135C90.3154 33.1796 89.7322 33.2241 89.1081 33.2241C88.4943 33.2241 87.9009 33.2152 87.8088 33.1885C87.6349 33.1529 87.6246 32.841 87.6042 28.4396C87.6042 25.8469 87.6349 23.7086 87.6758 23.673C87.7269 23.6373 88.3715 23.6106 89.1286 23.6106Z" fill="#089CDA"/>
</svg>
