<svg width="17" height="16" viewBox="0 0 17 16" fill="none" xmlns="http://www.w3.org/2000/svg">
<path d="M8.5 4.30867C7.76973 4.30867 7.05586 4.52522 6.44866 4.93094C5.84147 5.33665 5.36822 5.91331 5.08875 6.58799C4.80929 7.26267 4.73617 8.00507 4.87864 8.72131C5.02111 9.43755 5.37277 10.0955 5.88914 10.6118C6.40552 11.1282 7.06343 11.4799 7.77967 11.6223C8.4959 11.7648 9.2383 11.6917 9.91299 11.4122C10.5877 11.1328 11.1643 10.6595 11.57 10.0523C11.9758 9.44512 12.1923 8.73125 12.1923 8.00098C12.1913 7.02203 11.802 6.08347 11.1097 5.39125C10.4175 4.69902 9.47895 4.30969 8.5 4.30867ZM8.5 10.4625C8.01315 10.4625 7.53724 10.3181 7.13244 10.0477C6.72764 9.77719 6.41214 9.39275 6.22583 8.94297C6.03953 8.49318 5.99078 7.99825 6.08576 7.52075C6.18074 7.04326 6.41518 6.60466 6.75943 6.26041C7.10368 5.91615 7.54229 5.68172 8.01978 5.58674C8.49727 5.49176 8.9922 5.5405 9.44199 5.72681C9.89178 5.91312 10.2762 6.22862 10.5467 6.63342C10.8172 7.03822 10.9615 7.51413 10.9615 8.00098C10.9615 8.65382 10.7022 9.27992 10.2406 9.74155C9.77894 10.2032 9.15284 10.4625 8.5 10.4625ZM12.1923 0.000976562H4.80769C3.6656 0.00219827 2.57063 0.456436 1.76304 1.26402C0.955459 2.0716 0.501222 3.16657 0.5 4.30867V11.6933C0.501222 12.8354 0.955459 13.9304 1.76304 14.7379C2.57063 15.5455 3.6656 15.9998 4.80769 16.001H12.1923C13.3344 15.9998 14.4294 15.5455 15.237 14.7379C16.0445 13.9304 16.4988 12.8354 16.5 11.6933V4.30867C16.4988 3.16657 16.0445 2.0716 15.237 1.26402C14.4294 0.456436 13.3344 0.00219827 12.1923 0.000976562ZM15.2692 11.6933C15.2692 12.5093 14.9451 13.292 14.368 13.869C13.791 14.446 13.0084 14.7702 12.1923 14.7702H4.80769C3.99164 14.7702 3.20901 14.446 2.63198 13.869C2.05494 13.292 1.73077 12.5093 1.73077 11.6933V4.30867C1.73077 3.49262 2.05494 2.70999 2.63198 2.13296C3.20901 1.55592 3.99164 1.23175 4.80769 1.23175H12.1923C13.0084 1.23175 13.791 1.55592 14.368 2.13296C14.9451 2.70999 15.2692 3.49262 15.2692 4.30867V11.6933ZM13.4231 4.00098C13.4231 4.18354 13.3689 4.36201 13.2675 4.51381C13.1661 4.66561 13.0219 4.78392 12.8532 4.85379C12.6846 4.92365 12.499 4.94193 12.3199 4.90632C12.1409 4.8707 11.9764 4.78279 11.8473 4.65369C11.7182 4.5246 11.6303 4.36012 11.5947 4.18106C11.559 4.002 11.5773 3.8164 11.6472 3.64773C11.7171 3.47906 11.8354 3.3349 11.9872 3.23347C12.139 3.13204 12.3174 3.0779 12.5 3.0779C12.7448 3.0779 12.9796 3.17515 13.1527 3.34826C13.3258 3.52137 13.4231 3.75616 13.4231 4.00098Z" fill="#D1D1D1"/>
</svg>
