<svg width="17" height="16" viewBox="0 0 17 16" fill="none" xmlns="http://www.w3.org/2000/svg">
<path d="M13.086 9.29628L10.6243 8.06539C10.5274 8.0171 10.4194 7.99523 10.3114 8.00198C10.2033 8.00874 10.0989 8.04387 10.0088 8.10385L8.8787 8.85777C8.35993 8.57258 7.93301 8.14566 7.64782 7.62689L8.40173 6.49678C8.46171 6.40664 8.49685 6.30228 8.50361 6.19422C8.51036 6.08616 8.48849 5.97824 8.4402 5.88133L7.20931 3.41956C7.15829 3.31653 7.07943 3.22985 6.98167 3.16934C6.88391 3.10883 6.77115 3.07692 6.65618 3.07722C5.84005 3.07722 5.05735 3.40142 4.48026 3.97851C3.90317 4.55561 3.57896 5.33831 3.57896 6.15444C3.581 7.9493 4.29491 9.67006 5.56406 10.9392C6.83322 12.2084 8.55399 12.9223 10.3488 12.9243C10.753 12.9243 11.1531 12.8447 11.5264 12.6901C11.8998 12.5354 12.239 12.3088 12.5248 12.023C12.8105 11.7373 13.0372 11.398 13.1918 11.0247C13.3465 10.6514 13.4261 10.2512 13.4261 9.8471C13.4261 9.73276 13.3944 9.62066 13.3343 9.52337C13.2743 9.42608 13.1883 9.34744 13.086 9.29628ZM10.3488 11.6934C8.88031 11.6918 7.47239 11.1077 6.43398 10.0693C5.39557 9.03089 4.81148 7.62297 4.80985 6.15444C4.80973 5.72756 4.95753 5.31384 5.22809 4.98366C5.49866 4.65349 5.87527 4.42727 6.29384 4.34349L7.177 6.11289L6.42539 7.23146C6.36923 7.31571 6.33472 7.41252 6.32492 7.5133C6.31512 7.61408 6.33034 7.71572 6.36923 7.80921C6.80957 8.85576 7.64214 9.68833 8.68869 10.1287C8.78246 10.1693 8.88487 10.1859 8.98667 10.177C9.08848 10.1682 9.18648 10.1341 9.27182 10.0779L10.3958 9.32859L12.1652 10.2117C12.0807 10.6308 11.8535 11.0076 11.5223 11.2778C11.1911 11.548 10.7763 11.6949 10.3488 11.6934ZM8.50251 1.90538e-07C7.1212 -0.00030123 5.76334 0.357025 4.5611 1.0372C3.35886 1.71737 2.35319 2.69722 1.64199 3.88137C0.930785 5.06552 0.538274 6.41363 0.50266 7.79449C0.467046 9.17534 0.789543 10.5419 1.43876 11.7611L0.565599 14.3806C0.493272 14.5975 0.482776 14.8302 0.535286 15.0527C0.587797 15.2752 0.701239 15.4787 0.862897 15.6404C1.02456 15.802 1.22804 15.9155 1.45055 15.968C1.67306 16.0205 1.90579 16.01 2.12267 15.9377L4.74215 15.0645C5.81516 15.6352 7.00407 15.954 8.21866 15.9966C9.43325 16.0392 10.6416 15.8046 11.752 15.3105C12.8623 14.8164 13.8455 14.0758 14.627 13.145C15.4084 12.2142 15.9675 11.1176 16.2618 9.93844C16.5562 8.75928 16.578 7.52857 16.3257 6.33971C16.0734 5.15086 15.5535 4.03511 14.8056 3.07715C14.0577 2.1192 13.1014 1.34422 12.0092 0.811043C10.9171 0.277864 9.71785 0.000498686 8.50251 1.90538e-07ZM8.50251 14.7706C7.31238 14.7715 6.14313 14.458 5.11296 13.8621C5.03753 13.8184 4.95367 13.7911 4.86693 13.7823C4.7802 13.7734 4.69256 13.783 4.60983 13.8106L1.73263 14.7706L2.69196 11.8934C2.71961 11.8108 2.72938 11.7232 2.72063 11.6364C2.71188 11.5497 2.6848 11.4658 2.64118 11.3903C1.89493 10.1001 1.59532 8.59973 1.78882 7.12188C1.98231 5.64403 2.6581 4.27135 3.71135 3.21676C4.7646 2.16218 6.13644 1.48466 7.61404 1.2893C9.09164 1.09393 10.5924 1.39165 11.8836 2.13627C13.1747 2.88089 14.184 4.03078 14.7549 5.40756C15.3258 6.78434 15.4265 8.31105 15.0412 9.75085C14.6559 11.1906 13.8062 12.4631 12.6239 13.3707C11.4417 14.2783 9.99298 14.7704 8.50251 14.7706Z" fill="#D1D1D1"/>
</svg>
