<svg width="17" height="16" viewBox="0 0 17 16" fill="none" xmlns="http://www.w3.org/2000/svg">
<path d="M8.5 0.000976562C6.91775 0.000976563 5.37103 0.470168 4.05544 1.34922C2.73985 2.22827 1.71447 3.4777 1.10897 4.93951C0.503466 6.40132 0.34504 8.00985 0.653721 9.5617C0.962403 11.1135 1.72433 12.539 2.84315 13.6578C3.96197 14.7766 5.38743 15.5386 6.93928 15.8473C8.49113 16.1559 10.0997 15.9975 11.5615 15.392C13.0233 14.7865 14.2727 13.7611 15.1518 12.4455C16.0308 11.1299 16.5 9.58322 16.5 8.00097C16.4978 5.87993 15.6542 3.8464 14.1544 2.3466C12.6546 0.84679 10.621 0.00321642 8.5 0.000976562ZM9.11539 14.7417V9.84713H10.9615C11.1247 9.84713 11.2813 9.78229 11.3967 9.66689C11.5121 9.55148 11.5769 9.39495 11.5769 9.23174C11.5769 9.06853 11.5121 8.91201 11.3967 8.7966C11.2813 8.68119 11.1247 8.61636 10.9615 8.61636H9.11539V6.77021C9.11539 6.44379 9.24506 6.13073 9.47587 5.89992C9.70668 5.66911 10.0197 5.53944 10.3462 5.53944H11.5769C11.7401 5.53944 11.8967 5.4746 12.0121 5.35919C12.1275 5.24379 12.1923 5.08726 12.1923 4.92405C12.1923 4.76084 12.1275 4.60432 12.0121 4.48891C11.8967 4.3735 11.7401 4.30867 11.5769 4.30867H10.3462C9.69331 4.30867 9.06721 4.56801 8.60559 5.02964C8.14396 5.49126 7.88462 6.11737 7.88462 6.77021V8.61636H6.03846C5.87525 8.61636 5.71873 8.68119 5.60332 8.7966C5.48791 8.91201 5.42308 9.06853 5.42308 9.23174C5.42308 9.39495 5.48791 9.55148 5.60332 9.66689C5.71873 9.78229 5.87525 9.84713 6.03846 9.84713H7.88462V14.7417C6.14984 14.5834 4.5429 13.7623 3.39803 12.4494C2.25317 11.1365 1.65852 9.43271 1.73778 7.69253C1.81705 5.95235 2.56412 4.30971 3.8236 3.10629C5.08308 1.90287 6.75802 1.23131 8.5 1.23131C10.242 1.23131 11.9169 1.90287 13.1764 3.10629C14.4359 4.30971 15.183 5.95235 15.2622 7.69253C15.3415 9.43271 14.7468 11.1365 13.602 12.4494C12.4571 13.7623 10.8502 14.5834 9.11539 14.7417Z" fill="#D1D1D1"/>
</svg>
