<svg width="139" height="90" viewBox="0 0 139 90" fill="none" xmlns="http://www.w3.org/2000/svg">
<g clip-path="url(#clip0_294_3415)">
<mask id="mask0_294_3415" style="mask-type:luminance" maskUnits="userSpaceOnUse" x="0" y="0" width="139" height="90">
<path d="M0.5 0H75.3129L138.5 90H63.4893L0.5 0Z" fill="white"/>
</mask>
<g mask="url(#mask0_294_3415)">
<path d="M138.5 0H0.5V90H138.5V0Z" fill="url(#paint0_linear_294_3415)"/>
</g>
<path d="M71.2999 4.58417H10.0098L66.6122 85.4158H128.99L71.2999 4.58417ZM111.218 65.9762H70.982L71.0244 59.1312H106.318L111.218 65.9762ZM71.035 57.0358L71.0774 49.6025H99.5075L104.806 57.0358H71.035ZM71.0915 47.4777L71.1304 40.5408L93.1807 40.7172L97.9991 47.4961L71.0915 47.4777ZM71.1516 36.3463L71.3035 10.0911L90.1568 36.5007L71.1516 36.3463ZM66.5592 36.3095L41.1741 36.1036L66.697 12.8666L66.5592 36.3095ZM66.5345 40.5224L66.4956 47.5071H43.9507L38.9098 40.3092L66.5345 40.5224ZM66.485 49.6025L66.4391 57.0358H50.6344L45.4309 49.6025H66.485ZM66.4285 59.1422L66.3897 65.9872H56.9047L52.111 59.1422H66.4285ZM66.3755 68.0937L66.3119 79.4053L58.3813 68.079L66.3755 68.0937ZM70.9679 68.0937H112.705L122.727 82.1403H70.8901L70.9679 68.0937ZM65.1921 7.86331L35.2853 35.1148L16.2094 7.86331H65.1921Z" fill="white"/>
</g>
<defs>
<linearGradient id="paint0_linear_294_3415" x1="0.790907" y1="45.0645" x2="138.791" y2="45.0645" gradientUnits="userSpaceOnUse">
<stop stop-color="#A3182E"/>
<stop offset="1" stop-color="#FA002F"/>
</linearGradient>
<clipPath id="clip0_294_3415">
<rect width="138" height="90" fill="white" transform="translate(0.5)"/>
</clipPath>
</defs>
</svg>
